<svg width="32" height="29" viewBox="0 0 32 29" fill="none" xmlns="http://www.w3.org/2000/svg">
<path d="M9.30417 11.3066C8.95165 11.3066 8.61357 11.443 8.3643 11.6858C8.11504 11.9286 7.975 12.2579 7.975 12.6012V15.1905C7.975 15.5339 8.11504 15.8632 8.3643 16.106C8.61357 16.3488 8.95165 16.4852 9.30417 16.4852C9.65668 16.4852 9.99476 16.3488 10.244 16.106C10.4933 15.8632 10.6333 15.5339 10.6333 15.1905V12.6012C10.6333 12.2579 10.4933 11.9286 10.244 11.6858C9.99476 11.443 9.65668 11.3066 9.30417 11.3066ZM25.2542 12.6012C25.6067 12.6012 25.9448 12.4648 26.194 12.222C26.4433 11.9792 26.5833 11.6499 26.5833 11.3066V6.12802C26.5833 5.78466 26.4433 5.45536 26.194 5.21257C25.9448 4.96977 25.6067 4.83337 25.2542 4.83337H1.32917C0.97665 4.83337 0.638571 4.96977 0.389304 5.21257C0.140037 5.45536 0 5.78466 0 6.12802V11.3066C0 11.6499 0.140037 11.9792 0.389304 12.222C0.638571 12.4648 0.97665 12.6012 1.32917 12.6012C1.68168 12.6012 2.01976 12.7376 2.26903 12.9804C2.5183 13.2232 2.65833 13.5525 2.65833 13.8959C2.65833 14.2392 2.5183 14.5685 2.26903 14.8113C2.01976 15.0541 1.68168 15.1905 1.32917 15.1905C0.97665 15.1905 0.638571 15.3269 0.389304 15.5697C0.140037 15.8125 0 16.1418 0 16.4852V21.6637C0 22.0071 0.140037 22.3364 0.389304 22.5792C0.638571 22.822 0.97665 22.9584 1.32917 22.9584H25.2542C25.6067 22.9584 25.9448 22.822 26.194 22.5792C26.4433 22.3364 26.5833 22.0071 26.5833 21.6637V16.4852C26.5833 16.1418 26.4433 15.8125 26.194 15.5697C25.9448 15.3269 25.6067 15.1905 25.2542 15.1905C24.9016 15.1905 24.5636 15.0541 24.3143 14.8113C24.065 14.5685 23.925 14.2392 23.925 13.8959C23.925 13.5525 24.065 13.2232 24.3143 12.9804C24.5636 12.7376 24.9016 12.6012 25.2542 12.6012ZM23.925 10.245C23.1552 10.5171 22.4901 11.0135 22.0201 11.6667C21.5501 12.3199 21.2979 13.0982 21.2979 13.8959C21.2979 14.6935 21.5501 15.4718 22.0201 16.125C22.4901 16.7782 23.1552 17.2746 23.925 17.5468V20.3691H10.6333C10.6333 20.0257 10.4933 19.6964 10.244 19.4536C9.99476 19.2108 9.65668 19.0744 9.30417 19.0744C8.95165 19.0744 8.61357 19.2108 8.3643 19.4536C8.11504 19.6964 7.975 20.0257 7.975 20.3691H2.65833V17.5468C3.42812 17.2746 4.09322 16.7782 4.56324 16.125C5.03326 15.4718 5.2854 14.6935 5.2854 13.8959C5.2854 13.0982 5.03326 12.3199 4.56324 11.6667C4.09322 11.0135 3.42812 10.5171 2.65833 10.245V7.42266H7.975C7.975 7.76602 8.11504 8.09532 8.3643 8.33811C8.61357 8.5809 8.95165 8.7173 9.30417 8.7173C9.65668 8.7173 9.99476 8.5809 10.244 8.33811C10.4933 8.09532 10.6333 7.76602 10.6333 7.42266H23.925V10.245Z" fill="white"/>
</svg>
