<svg width="24" height="22" viewBox="0 0 24 22" fill="none" xmlns="http://www.w3.org/2000/svg">
<path d="M17.4 0C15.3 0 13.3201 0.959177 12 2.5178C10.6798 0.959177 8.7 0 6.6 0C2.87988 0 0 2.87724 0 6.59398C0 11.1496 4.07989 14.8066 10.2598 20.441L12 22L13.7402 20.441C19.9201 14.8066 24 11.1495 24 6.59398C24 2.87724 21.1201 0 17.4 0ZM12.7405 18.8637L12.4971 19.0856L12 19.5309L11.5029 19.0856L11.2598 18.864C8.35108 16.2124 5.83898 13.9223 4.17831 11.8747C2.5654 9.88596 1.84615 8.25733 1.84615 6.59398C1.84615 5.28401 2.33204 4.0771 3.21433 3.19567C4.09367 2.31716 5.29604 1.83333 6.6 1.83333C8.10773 1.83333 9.59827 2.5304 10.5871 3.69789L12 5.36599L13.4128 3.69789C14.4017 2.5304 15.8922 1.83333 17.4 1.83333C18.704 1.83333 19.9063 2.31716 20.7857 3.19561C21.668 4.0771 22.1538 5.28395 22.1538 6.59398C22.1538 8.25733 21.4346 9.88591 19.8218 11.8746C18.1612 13.9222 15.6492 16.2121 12.7405 18.8637Z" fill="white"/>
</svg>
