<svg width="21" height="19" viewBox="0 0 21 19" fill="none" xmlns="http://www.w3.org/2000/svg">
<path d="M12.2025 13.0705H11.5832V8.50288C11.5832 8.30132 11.4965 8.10801 11.3423 7.96548C11.1881 7.82295 10.9789 7.74288 10.7608 7.74288H8.35924C8.14111 7.74288 7.93192 7.82295 7.77769 7.96548C7.62345 8.10801 7.5368 8.30132 7.5368 8.50288C7.5368 8.70444 7.62345 8.89775 7.77769 9.04028C7.93192 9.18281 8.14111 9.26288 8.35924 9.26288H9.93831V13.0705H8.35924C8.14111 13.0705 7.93192 13.1506 7.77769 13.2931C7.62345 13.4356 7.5368 13.6289 7.5368 13.8305C7.5368 14.032 7.62345 14.2254 7.77769 14.3679C7.93192 14.5104 8.14111 14.5905 8.35924 14.5905H12.2025C12.4206 14.5905 12.6298 14.5104 12.784 14.3679C12.9383 14.2254 13.0249 14.032 13.0249 13.8305C13.0249 13.6289 12.9383 13.4356 12.784 13.2931C12.6298 13.1506 12.4206 13.0705 12.2025 13.0705ZM10.2804 6.08988C10.5244 6.08988 10.763 6.02302 10.9658 5.89776C11.1687 5.77249 11.3268 5.59445 11.4202 5.38614C11.5136 5.17783 11.538 4.94862 11.4904 4.72748C11.4428 4.50634 11.3253 4.30321 11.1528 4.14378C10.9802 3.98435 10.7604 3.87577 10.5211 3.83178C10.2818 3.7878 10.0338 3.81037 9.80835 3.89666C9.58293 3.98294 9.39026 4.12906 9.2547 4.31653C9.11915 4.504 9.04679 4.72441 9.04679 4.94988C9.04679 5.25223 9.17677 5.54219 9.40812 5.75598C9.63948 5.96977 9.95326 6.08988 10.2804 6.08988ZM10.2804 0C7.55484 0.00281621 4.94174 1.00461 3.01444 2.7856C1.08714 4.56658 0.00304756 6.98131 0 9.5C0.00456674 12.0183 1.08915 14.4322 3.01612 16.2129C4.94309 17.9935 7.55531 18.9958 10.2804 19C13.007 19 15.6219 17.9991 17.5498 16.2175C19.4778 14.4359 20.5609 12.0196 20.5609 9.5C20.5609 6.98044 19.4778 4.56408 17.5498 2.78249C15.6219 1.00089 13.007 0 10.2804 0ZM16.3089 15.2046C14.8824 16.4889 13.019 17.2776 11.0348 17.437C9.05063 17.5963 7.06791 17.1164 5.42303 16.0787C3.77815 15.041 2.57241 13.5094 2.01037 11.7438C1.44832 9.97812 1.5646 8.08717 2.33945 6.39172C3.11431 4.69628 4.50004 3.30076 6.26153 2.44192C8.02303 1.58308 10.0518 1.31381 12.0037 1.67981C13.9555 2.0458 15.7103 3.02451 16.9702 4.4499C18.2301 5.87528 18.9176 7.65956 18.916 9.5C18.9188 10.564 18.6894 11.6176 18.2415 12.5978C17.7935 13.5779 17.1362 14.4645 16.3089 15.2046Z" fill="#F3E9C6"/>
</svg>
