<svg width="35" height="35" viewBox="0 0 35 35" fill="none" xmlns="http://www.w3.org/2000/svg">
<circle cx="17.5" cy="17.5" r="17.5" fill="black"/>
<path d="M24 24.86H23.24C22.44 24.86 21.68 25.17 21.12 25.73L19.41 27.42C18.63 28.19 17.36 28.19 16.58 27.42L14.87 25.73C14.31 25.17 13.54 24.86 12.75 24.86H12C10.34 24.86 9 23.53 9 21.89V10.98C9 9.33998 10.34 8.01001 12 8.01001H24C25.66 8.01001 27 9.33998 27 10.98V21.89C27 23.52 25.66 24.86 24 24.86Z" stroke="#F3E9C6" stroke-width="1.5" stroke-miterlimit="10" stroke-linecap="round" stroke-linejoin="round"/>
<path d="M18.28 20.96C18.13 21.01 17.88 21.01 17.72 20.96C16.42 20.51 13.5 18.66 13.5 15.51C13.5 14.12 14.62 13 16 13C16.82 13 17.54 13.39 18 14C18.46 13.39 19.18 13 20 13C21.38 13 22.5 14.12 22.5 15.51C22.49 18.66 19.58 20.51 18.28 20.96Z" stroke="#F3E9C6" stroke-width="1.5" stroke-linecap="round" stroke-linejoin="round"/>
</svg>
