<svg width="61" height="16" viewBox="0 0 61 16" fill="none" xmlns="http://www.w3.org/2000/svg">
<path d="M0.586914 7.98424C0.586914 3.67033 4.08403 0.173218 8.39793 0.173218H52.246C56.5599 0.173218 60.057 3.67033 60.057 7.98424C60.057 12.2981 56.5599 15.7953 52.246 15.7953H8.39794C4.08403 15.7953 0.586914 12.2981 0.586914 7.98424Z" fill="#EDE4C4"/>
<circle cx="11" cy="8" r="5" fill="#3E4554"/>
<path d="M29.4033 11V3.8H30.4483V10.015H33.7083V11H29.4033ZM34.6572 4.715V3.7H35.7022V4.715H34.6572ZM34.6572 11V5.6H35.7022V11H34.6572ZM38.6637 11L36.7037 5.6H37.7587L39.1937 9.69L40.6287 5.6H41.6837L39.7237 11H38.6637ZM44.7843 11.15C44.2476 11.15 43.7759 11.0333 43.3693 10.8C42.9659 10.5633 42.6509 10.235 42.4243 9.815C42.2009 9.39167 42.0893 8.90167 42.0893 8.345C42.0893 7.755 42.1993 7.24333 42.4193 6.81C42.6426 6.37667 42.9526 6.04167 43.3493 5.805C43.7459 5.56833 44.2076 5.45 44.7343 5.45C45.2843 5.45 45.7526 5.57833 46.1393 5.835C46.5259 6.08833 46.8143 6.45 47.0043 6.92C47.1976 7.39 47.2743 7.94833 47.2343 8.595H46.1893V8.215C46.1826 7.58833 46.0626 7.125 45.8293 6.825C45.5993 6.525 45.2476 6.375 44.7743 6.375C44.2509 6.375 43.8576 6.54 43.5943 6.87C43.3309 7.2 43.1993 7.67667 43.1993 8.3C43.1993 8.89333 43.3309 9.35333 43.5943 9.68C43.8576 10.0033 44.2376 10.165 44.7343 10.165C45.0609 10.165 45.3426 10.0917 45.5793 9.945C45.8193 9.795 46.0059 9.58167 46.1393 9.305L47.1643 9.63C46.9543 10.1133 46.6359 10.4883 46.2093 10.755C45.7826 11.0183 45.3076 11.15 44.7843 11.15ZM42.8593 8.595V7.78H46.7143V8.595H42.8593Z" fill="#3E4554"/>
</svg>
