<svg width="35" height="35" viewBox="0 0 35 35" fill="none" xmlns="http://www.w3.org/2000/svg">
<circle cx="17.5" cy="17.5" r="17.5" fill="black"/>
<path d="M10 15C8.9 15 8 15.9 8 17C8 18.1 8.9 19 10 19C11.1 19 12 18.1 12 17C12 15.9 11.1 15 10 15Z" stroke="#F3E9C6" stroke-width="1.5"/>
<path d="M24 15C22.9 15 22 15.9 22 17C22 18.1 22.9 19 24 19C25.1 19 26 18.1 26 17C26 15.9 25.1 15 24 15Z" stroke="#F3E9C6" stroke-width="1.5"/>
<path d="M17 15C15.9 15 15 15.9 15 17C15 18.1 15.9 19 17 19C18.1 19 19 18.1 19 17C19 15.9 18.1 15 17 15Z" stroke="#F3E9C6" stroke-width="1.5"/>
</svg>
