<svg width="17" height="19" viewBox="0 0 17 19" fill="none" xmlns="http://www.w3.org/2000/svg">
<path d="M7.35475 0.000134656L7.4962 0.0155143L15.4922 1.59924C15.8192 1.66403 16.066 1.92094 16.1226 2.23703L16.1349 2.37573V16.6244C16.1349 16.9546 15.9289 17.2447 15.6271 17.3617L15.4922 17.4009L7.4962 18.9846C7.26129 19.0312 7.01771 18.9708 6.83246 18.8205C6.68424 18.7002 6.58586 18.5323 6.55244 18.3485L6.53979 18.2081V0.791999L6.55244 0.651656C6.58586 0.467849 6.68424 0.299945 6.83246 0.17962C6.98066 0.0592946 7.16619 -0.00330693 7.35475 0.000134656ZM4.94061 1.58386V3.16759H1.74225V15.8325H4.94061V17.4162H0.942657C0.550125 17.4162 0.223652 17.1361 0.155949 16.7667L0.143066 16.6244V2.37573C0.143066 1.98699 0.425925 1.66367 0.798931 1.59662L0.942657 1.58386H4.94061ZM8.13897 1.75793V17.2422L14.5357 15.9752V3.02492L8.13897 1.75793ZM10.5377 8.70813C10.9793 8.70813 11.3373 9.06266 11.3373 9.49999C11.3373 9.93734 10.9793 10.2919 10.5377 10.2919C10.0961 10.2919 9.73815 9.93734 9.73815 9.49999C9.73815 9.06266 10.0961 8.70813 10.5377 8.70813Z" fill="#F3E9C6"/>
</svg>
